<?xml version="1.0" encoding="UTF-8" standalone="no"?>
<!-- Created with Inkscape (http://www.inkscape.org/) -->

<svg
   version="1.1"
   id="svg2"
   xml:space="preserve"
   width="2666.6667"
   height="2666.6667"
   viewBox="0 0 2666.6667 2666.6667"
   sodipodi:docname="vecteezy_skill-icon-logo-vector-illustration-employee-skills-symbol_9317697.eps"
   xmlns:inkscape="http://www.inkscape.org/namespaces/inkscape"
   xmlns:sodipodi="http://sodipodi.sourceforge.net/DTD/sodipodi-0.dtd"
   xmlns="http://www.w3.org/2000/svg"
   xmlns:svg="http://www.w3.org/2000/svg"><defs
     id="defs6" /><sodipodi:namedview
     id="namedview4"
     pagecolor="#ffffff"
     bordercolor="#666666"
     borderopacity="1.0"
     inkscape:pageshadow="2"
     inkscape:pageopacity="0.0"
     inkscape:pagecheckerboard="0" /><g
     id="g8"
     inkscape:groupmode="layer"
     inkscape:label="ink_ext_XXXXXX"
     transform="matrix(1.3333333,0,0,-1.3333333,0,2666.6667)"><g
       id="g10"
       transform="scale(0.1)"><path
         d="M 20000,0 H 0 V 20000 H 20000 V 0"
         style="fill:#ffffff;fill-opacity:1;fill-rule:nonzero;stroke:none"
         id="path12" /><path
         d="M 1045.45,1215.4 0,0 H 6872.72 L 7918.18,1215.4 H 1045.45"
         style="fill:#29333f;fill-opacity:1;fill-rule:nonzero;stroke:none"
         id="path14" /><path
         d="m 1533.54,872.301 h 136.39 V 283 h -136.39 v 589.301"
         style="fill:#ffffff;fill-opacity:1;fill-rule:nonzero;stroke:none"
         id="path16" /><path
         d="m 1889.24,306.199 c -38.45,19.903 -68.49,47.5 -90.08,82.903 -21.62,35.296 -32.42,75.5 -32.42,120.398 0,44.898 10.8,85 32.42,120.402 21.59,35.297 51.63,63 90.08,82.899 38.44,19.898 81.79,29.898 130.07,29.898 47.7,0 89.37,-10 125.02,-29.898 35.64,-19.899 61.59,-48.403 77.88,-85.5 l -101.87,-54.699 c -23.58,41.601 -57.54,62.3 -101.87,62.3 -34.25,0 -62.59,-11.203 -85.03,-33.703 -22.46,-22.398 -33.68,-53 -33.68,-91.699 0,-38.699 11.22,-69.301 33.68,-91.801 22.44,-22.398 50.78,-33.699 85.03,-33.699 44.89,0 78.84,20.801 101.87,62.301 l 101.87,-55.5 c -16.29,-36 -42.24,-64 -77.88,-84.199 -35.65,-20.2 -77.32,-30.301 -125.02,-30.301 -48.28,0 -91.63,9.898 -130.07,29.898"
         style="fill:#ffffff;fill-opacity:1;fill-rule:nonzero;stroke:none"
         id="path18" /><path
         d="m 2590.53,418.102 c 21.6,22.8 32.41,53.199 32.41,91.398 0,38.102 -10.81,68.602 -32.41,91.301 -21.61,22.801 -49.25,34.101 -82.92,34.101 -33.68,0 -61.46,-11.3 -83.35,-34.101 -21.89,-22.699 -32.83,-53.199 -32.83,-91.301 0,-38.199 10.94,-68.598 32.83,-91.398 21.89,-22.7 49.67,-34.102 83.35,-34.102 33.67,0 61.31,11.402 82.92,34.102 z M 2379.22,306.199 c -37.89,19.903 -67.5,47.5 -88.82,82.903 -21.34,35.296 -32,75.5 -32,120.398 0,44.898 10.66,85 32,120.402 21.32,35.297 50.93,63 88.82,82.899 37.88,19.898 80.67,29.898 128.39,29.898 47.7,0 90.35,-10 127.97,-29.898 37.59,-19.899 67.06,-47.602 88.39,-82.899 21.33,-35.402 32,-75.504 32,-120.402 0,-44.898 -10.67,-85.102 -32,-120.398 -21.33,-35.403 -50.8,-63 -88.39,-82.903 -37.62,-20 -80.27,-29.898 -127.97,-29.898 -47.72,0 -90.51,9.898 -128.39,29.898"
         style="fill:#ffffff;fill-opacity:1;fill-rule:nonzero;stroke:none"
         id="path20" /><path
         d="m 3254.79,692.199 c 34.52,-33.699 51.77,-83.699 51.77,-149.898 V 283 h -131.33 v 239.102 c 0,35.898 -7.87,62.699 -23.57,80.398 -15.72,17.699 -38.46,26.5 -68.2,26.5 -33.12,0 -59.5,-10.199 -79.13,-30.699 -19.66,-20.5 -29.47,-50.899 -29.47,-91.301 V 283 h -131.34 v 452.902 h 125.44 v -53 c 17.39,19.098 39.01,33.801 64.83,44.2 25.81,10.398 54.16,15.597 85.03,15.597 56.12,0 101.45,-16.898 135.97,-50.5"
         style="fill:#ffffff;fill-opacity:1;fill-rule:nonzero;stroke:none"
         id="path22" /><path
         d="M 4239.38,872.301 3984.28,283 h -134.7 l -254.26,589.301 h 147.34 l 179.32,-420.899 181.85,420.899 h 135.55"
         style="fill:#ffffff;fill-opacity:1;fill-rule:nonzero;stroke:none"
         id="path24" /><path
         d="m 4379.12,618.102 c -20.2,-16.903 -32.56,-39.903 -37.04,-69.102 h 223.1 c -4.5,28.699 -16.84,51.5 -37.05,68.699 -20.2,17.102 -44.9,25.602 -74.08,25.602 -29.76,0 -54.72,-8.399 -74.93,-25.199 z m 307.29,-145.7 h -342.65 c 6.17,-28.004 20.76,-50.203 43.78,-66.5 23.01,-16.3 51.63,-24.402 85.87,-24.402 23.58,0 44.48,3.5 62.72,10.5 18.24,7 35.22,18.102 50.94,33.301 l 69.88,-75.801 c -42.66,-48.801 -104.96,-73.199 -186.91,-73.199 -51.08,0 -96.26,9.898 -135.54,29.898 -39.29,19.903 -69.6,47.5 -90.93,82.903 -21.33,35.296 -31.99,75.5 -31.99,120.398 0,44.301 10.53,84.301 31.57,119.898 21.05,35.704 49.96,63.504 86.72,83.403 36.76,19.898 77.87,29.898 123.34,29.898 44.33,0 84.47,-9.597 120.39,-28.597 35.91,-19.102 64.11,-46.5 84.61,-82.102 20.48,-35.699 30.73,-77.098 30.73,-124.199 0,-1.699 -0.84,-13.5 -2.53,-35.399"
         style="fill:#ffffff;fill-opacity:1;fill-rule:nonzero;stroke:none"
         id="path26" /><path
         d="m 4865.32,306.199 c -38.45,19.903 -68.49,47.5 -90.09,82.903 -21.61,35.296 -32.41,75.5 -32.41,120.398 0,44.898 10.8,85 32.41,120.402 21.6,35.297 51.64,63 90.09,82.899 38.43,19.898 81.79,29.898 130.07,29.898 47.7,0 89.37,-10 125.02,-29.898 35.63,-19.899 61.59,-48.403 77.88,-85.5 l -101.87,-54.699 c -23.58,41.601 -57.54,62.3 -101.87,62.3 -34.25,0 -62.59,-11.203 -85.03,-33.703 -22.46,-22.398 -33.68,-53 -33.68,-91.699 0,-38.699 11.22,-69.301 33.68,-91.801 22.44,-22.398 50.78,-33.699 85.03,-33.699 44.89,0 78.84,20.801 101.87,62.301 l 101.87,-55.5 c -16.29,-36 -42.25,-64 -77.88,-84.199 -35.65,-20.2 -77.32,-30.301 -125.02,-30.301 -48.28,0 -91.64,9.898 -130.07,29.898"
         style="fill:#ffffff;fill-opacity:1;fill-rule:nonzero;stroke:none"
         id="path28" /><path
         d="m 5572.91,304.902 c -12.92,-9.5 -28.77,-16.703 -47.57,-21.5 -18.81,-4.703 -38.59,-7.101 -59.35,-7.101 -53.88,0 -95.56,13.699 -125.02,41.199 -29.47,27.5 -44.2,67.902 -44.2,121.301 v 186 h -69.88 v 101 h 69.88 v 110.301 h 131.34 V 725.801 h 112.81 v -101 H 5428.11 V 440.402 c 0,-19 4.9,-33.8 14.73,-44.203 9.81,-10.398 23.7,-15.5 41.67,-15.5 20.76,0 38.44,5.602 53.04,16.801 l 35.36,-92.598"
         style="fill:#ffffff;fill-opacity:1;fill-rule:nonzero;stroke:none"
         id="path30" /><path
         d="m 5931.14,418.102 c 21.6,22.8 32.41,53.199 32.41,91.398 0,38.102 -10.81,68.602 -32.41,91.301 -21.61,22.801 -49.25,34.101 -82.93,34.101 -33.67,0 -61.46,-11.3 -83.35,-34.101 -21.89,-22.699 -32.83,-53.199 -32.83,-91.301 0,-38.199 10.94,-68.598 32.83,-91.398 21.89,-22.7 49.68,-34.102 83.35,-34.102 33.68,0 61.32,11.402 82.93,34.102 z M 5719.82,306.199 c -37.88,19.903 -67.5,47.5 -88.82,82.903 -21.33,35.296 -31.99,75.5 -31.99,120.398 0,44.898 10.66,85 31.99,120.402 21.32,35.297 50.94,63 88.82,82.899 37.89,19.898 80.68,29.898 128.39,29.898 47.7,0 90.36,-10 127.97,-29.898 37.59,-19.899 67.06,-47.602 88.4,-82.899 21.32,-35.402 31.99,-75.504 31.99,-120.402 0,-44.898 -10.67,-85.102 -31.99,-120.398 -21.34,-35.403 -50.81,-63 -88.4,-82.903 -37.61,-20 -80.27,-29.898 -127.97,-29.898 -47.71,0 -90.5,9.898 -128.39,29.898"
         style="fill:#ffffff;fill-opacity:1;fill-rule:nonzero;stroke:none"
         id="path32" /><path
         d="m 6373.13,725.801 c 26.66,11.301 57.38,16.898 92.19,16.898 V 621.402 c -14.6,1.2 -24.42,1.7 -29.47,1.7 -37.6,0 -67.07,-10.5 -88.39,-31.5 -21.34,-21.102 -32,-52.7 -32,-94.801 V 283 h -131.33 v 452.902 h 125.44 v -59.703 c 15.71,21.903 36.9,38.403 63.56,49.602"
         style="fill:#ffffff;fill-opacity:1;fill-rule:nonzero;stroke:none"
         id="path34" /><path
         d="m 9998.13,10508.8 c -493.18,0 -894.4,470.6 -894.4,1049.2 0,578.5 401.22,1049.2 894.4,1049.2 493.17,0 894.37,-470.7 894.37,-1049.2 0,-578.6 -401.2,-1049.2 -894.37,-1049.2 z m 0,2379.6 c -648.2,0 -1175.54,-596.8 -1175.54,-1330.4 0,-733.6 527.34,-1330.4 1175.54,-1330.4 648.17,0 1175.57,596.8 1175.57,1330.4 0,733.6 -527.4,1330.4 -1175.57,1330.4"
         style="fill:#29333f;fill-opacity:1;fill-rule:nonzero;stroke:none"
         id="path36" /><path
         d="m 13044,4929.4 c -1340.5,0 -2431,1090.5 -2431,2431 0,1340.4 1090.5,2431 2431,2431 1340.4,0 2430.9,-1090.6 2430.9,-2431 0,-1340.5 -1090.5,-2431 -2430.9,-2431 z m -1223.2,4850.5 c -195.2,163.6 -438,261 -694.1,276.5 l -1120.3,68.2 c -5.7,0.3 -11.42,0.3 -17.09,0 l -1120.7,-68.2 C 8239.85,10018.3 7747.3,9494.9 7747.3,8865 V 7051.3 C 6831.99,7750.8 6292.75,8832 6292.75,9994.1 c 0,2043 1662.1,3705.1 3705.09,3705.1 2042.96,0 3705.06,-1662.1 3705.06,-3705.1 0,-1 0,-1.9 0,-2.9 -211.1,52.9 -431.7,81.3 -658.9,81.3 -440,0 -855.4,-105.9 -1223.2,-292.6 z M 8821.54,8467.7 c -77.37,7 -145.38,-50.7 -151.95,-128.1 L 8521.6,6595 c -170.48,74.1 -335.51,161.5 -493.15,260.9 V 8865 c 0,481.6 376.53,881.6 857.21,910.8 l 1112.18,67.6 1111.86,-67.6 c 160.6,-9.7 314,-62.1 446.5,-149.4 -736.8,-485.4 -1224.4,-1319.7 -1224.4,-2266 0,-365.4 73.1,-714 204.7,-1032.4 -177.8,-25.9 -358.3,-38.9 -538.66,-38.9 -412.94,0 -816.92,68 -1203.01,200.6 l 154.91,1826.1 c 6.55,77.4 -50.83,145.4 -128.2,151.9 z M 10992.6,4606.9 c -653.9,-119.3 -1340.72,-119 -1989.6,0.5 l -69.06,818.4 c -5.01,59.3 -46.8,109 -104.36,124.2 -402.45,105.7 -788.7,265.9 -1147.98,476.2 -51.38,30.1 -116.2,24.6 -161.71,-13.9 L 6892.61,5482.4 C 6339.3,5863.2 5866.78,6335.6 5485.79,6889 l 529.9,627.6 c 38.42,45.5 44,110.3 13.93,161.6 -210.61,360.1 -370.74,746.3 -475.93,1147.9 -15.1,57.6 -64.87,99.5 -124.22,104.5 l -818.68,68.7 c -59.92,325.5 -90.27,659.8 -90.27,995.2 0,335.4 30.33,669.3 90.26,994.5 l 818.74,69 c 59.34,5 109.08,46.9 124.17,104.5 104.98,401.2 265.11,787.5 475.97,1148.3 30.04,51.5 24.43,116.2 -14.01,161.7 l -529.88,626.9 c 380.58,553.5 853.1,1026 1406.86,1407.2 l 627.64,-530 c 45.51,-38.4 110.32,-44 161.66,-13.9 359.2,210.1 745.32,370.2 1147.65,476 57.56,15.1 99.35,64.8 104.36,124.1 l 69.06,818.4 c 649.54,119.8 1336.9,119.9 1989.6,0.3 l 68.8,-818.6 c 5,-59.4 46.8,-109.1 104.4,-124.2 402.4,-105.7 788.7,-265.8 1148,-476 51.4,-30.1 116.1,-24.5 161.6,13.9 l 627.6,529.9 c 554,-381.4 1026.6,-854 1406.9,-1407.1 l -529.9,-627.3 c -38.4,-45.5 -44,-110.3 -13.9,-161.7 210.6,-360 370.7,-746.2 475.9,-1147.9 15.1,-57.6 64.8,-99.5 124.2,-104.4 l 818.3,-69.1 c 60,-325.1 90.3,-659.1 90.3,-994.5 0,-335.5 -30.3,-669.8 -90.3,-995.2 l -170.2,-14.3 c -310.9,414.2 -737.5,736.9 -1231.3,919.7 0.6,29.4 1.1,59.2 1.1,89.4 0,2198 -1788.3,3986.3 -3986.26,3986.3 -2198.01,0 -3986.23,-1788.3 -3986.23,-3986.3 0,-1345.9 671.99,-2591.3 1797.45,-3331.5 0.15,-0.1 0.3,-0.2 0.46,-0.4 0.31,-0.2 0.63,-0.4 0.95,-0.6 246.1,-162.4 510.48,-297 785.61,-400.1 447.61,-168.3 919.22,-253.6 1401.76,-253.6 222.86,0 446.06,18.7 664.86,55.4 114.7,-209.7 256.7,-402.2 420.5,-573.7 -12.1,-18.9 -19.9,-40.6 -21.8,-63.8 z m 4397.9,4110.8 123.5,10.4 c 62.2,5.2 113.4,50.8 125.9,111.9 77,376.2 116.1,764.6 116.1,1154.5 0,389.8 -39.1,778 -116.1,1153.8 -12.5,61.1 -63.7,106.6 -125.9,111.9 l -826.3,69.7 c -102.3,360.1 -246.5,707.7 -429.5,1035.9 l 535,633.3 c 40.3,47.7 44.3,116.1 10,168.2 -430.3,651.6 -979.4,1200.8 -1632.1,1632.5 -52.1,34.4 -120.6,30.3 -168.2,-9.9 l -633.8,-535.1 c -327.5,182.7 -675.1,326.9 -1035.8,429.5 l -69.4,826.7 c -5.2,62.2 -50.9,113.5 -112.1,126 -754.6,153.6 -1557.31,153.4 -2308.14,-0.4 -61.07,-12.5 -106.61,-63.8 -111.86,-125.9 l -69.76,-826.4 c -360.52,-102.7 -708,-246.8 -1035.49,-429.5 l -633.73,535.1 c -47.69,40.2 -116.15,44.3 -168.2,9.9 -652.42,-431.2 -1201.54,-980.5 -1632.11,-1632.5 -34.37,-52.1 -30.33,-120.6 9.94,-168.2 l 535.04,-633 c -183.22,-328.7 -327.36,-676.4 -429.53,-1036.2 l -826.69,-69.7 c -62.11,-5.3 -113.37,-50.8 -125.88,-111.9 -76.98,-375.8 -116.01,-764.1 -116.01,-1153.8 0,-389.8 39.01,-778.3 115.99,-1154.5 12.51,-61.1 63.8,-106.7 125.95,-111.9 l 826.66,-69.4 C 5410.3,8298.6 5554.44,7951 5737.49,7622.9 l -535.07,-633.8 c -40.26,-47.7 -44.28,-116.2 -9.85,-168.2 431.08,-651.9 980.18,-1200.9 1632.05,-1631.7 52.05,-34.4 120.53,-30.4 168.22,9.9 l 633.35,535 c 327.61,-182.8 675.18,-327 1035.85,-429.7 L 8731.8,4478 c 5.25,-62.2 50.79,-113.4 111.86,-126 375.79,-76.9 764.11,-116 1154.18,-116 388.36,0 776.66,38.8 1153.86,115.3 61.3,12.4 107,63.7 112.2,126 l 65.8,783.3 c 467.5,-382.5 1064.5,-612.4 1714.3,-612.4 1495.4,0 2712.1,1216.7 2712.1,2712.2 0,494.3 -133.6,957.7 -365.6,1357.3"
         style="fill:#29333f;fill-opacity:1;fill-rule:nonzero;stroke:none"
         id="path38" /><path
         d="m 14864.6,8035 c 0.1,0 0.1,0.1 0.1,0.1 h 0.1 z M 14160,7348.2 c -153.3,-149.5 -223.3,-364.8 -187.1,-575.8 l 147.9,-862 -774.1,407 c -189.6,99.6 -415.9,99.6 -605.5,0 l -774.1,-407 147.9,862 c 36.2,211.1 -33.8,426.3 -187.1,575.8 l -626.3,610.5 865.5,125.7 c 212,30.8 395,163.9 489.8,355.9 l 387.1,784.2 387,-784.2 c 94.8,-192 277.9,-325.1 489.8,-355.9 l 865.5,-125.7 z m 958.4,718.3 c -26.8,82.9 -97.1,142.1 -183.2,154.6 l -973.9,141.5 c -120.4,17.6 -224.4,93.1 -278.2,202.1 l -435.5,882.5 c -38.6,78.1 -116.6,126.6 -203.6,126.6 -87.1,0 -165.1,-48.5 -203.7,-126.6 l -435.5,-882.5 c -53.8,-109 -157.8,-184.5 -278.1,-202.1 l -974,-141.5 c -86.1,-12.5 -156.4,-71.7 -183.3,-154.6 -26.8,-82.8 -4.8,-171.9 57.5,-232.7 l 704.7,-686.9 c 87.1,-84.9 126.8,-207.1 106.3,-327 l -166.4,-970 c -14.7,-85.7 19.9,-170.9 90.3,-222 70.4,-51.1 162.1,-57.8 239.2,-17.3 l 871.1,458 c 107.6,56.5 236.2,56.5 343.7,-0.1 l 871.1,-457.9 c 33.6,-17.6 69.8,-26.3 105.9,-26.3 46.9,0 93.5,14.7 133.3,43.6 70.4,51.2 105,136.3 90.3,222 l -166.4,970 c -20.5,119.9 19.2,242.1 106.3,327 l 704.7,686.9 v 0 c 62.3,60.8 84.3,150 57.4,232.7"
         style="fill:#29333f;fill-opacity:1;fill-rule:nonzero;stroke:none"
         id="path40" /><path
         d="m 14356.4,7146.9 c -87.2,-84.7 -126.9,-207 -106.2,-326.8 l 166.2,-970 c 14.8,-85.7 -19.6,-170.7 -90.3,-222.1 -39.7,-28.8 -86.1,-43.5 -133.2,-43.5 -36.2,0 -72.4,8.8 -105.7,26.3 l -871.2,457.9 c -107.6,56.6 -236.2,56.6 -343.7,0 l -871.2,-457.9 c -77,-40.8 -168.7,-33.7 -239,17.2 -70.6,51.4 -105,136.4 -90.3,222.1 l 166.2,970 c 20.4,119.8 -19.3,242.1 -106.1,326.8 l -705,687 c -62.2,60.8 -84.3,150.1 -57.2,232.7 26.7,82.9 97,142 183.1,154.6 l 974.1,141.6 c 120.2,17.6 224.2,93.2 278,202.1 l 435.8,882.4 c 38.3,78.1 116.3,126.6 203.4,126.6 87.2,0 165.2,-48.5 203.5,-126.6 l 435.8,-882.4 c 53.7,-108.9 157.8,-184.5 278,-202.1 l 973.8,-141.6 c 86.4,-12.6 156.7,-71.7 183.4,-154.6 7.7,-23.2 11.2,-47.1 11.2,-70.6 0,-60.1 -23.9,-118.5 -68.5,-162.1 z m -1312.3,2644.5 c -1340.3,0 -2431.1,-1090.5 -2431.1,-2430.8 0,-1340.7 1090.8,-2431.2 2431.1,-2431.2 1340.4,0 2430.8,1090.5 2430.8,2431.2 0,1340.3 -1090.4,2430.8 -2430.8,2430.8"
         style="fill:#ff80ad;fill-opacity:1;fill-rule:nonzero;stroke:none"
         id="path42" /><path
         d="m 10331.8,7360.6 c 0,-365.5 73.1,-714.1 204.9,-1032.5 -177.8,-25.7 -358.4,-39 -538.73,-39 -412.93,0 -817.07,68.2 -1202.94,200.6 l 154.98,1826.4 c 6.33,77.3 -50.95,145.1 -128.27,151.8 -77.31,7 -145.49,-50.9 -152.16,-128.3 L 8521.63,6595.2 c -170.44,74.1 -335.26,161.3 -493.06,260.7 V 8865 c 0,481.8 376.73,881.7 857.13,910.9 l 1112.27,67.8 1111.93,-67.8 c 160.6,-9.8 314.2,-62.2 446.3,-149.3 -736.6,-485.4 -1224.4,-1319.6 -1224.4,-2266"
         style="fill:#1ed5e0;fill-opacity:1;fill-rule:nonzero;stroke:none"
         id="path44" /><path
         d="m 10892.7,11558 c 0,-578.4 -401.3,-1049 -894.38,-1049 -493.05,0 -894.38,470.6 -894.38,1049 0,578.8 401.33,1049.4 894.38,1049.4 493.08,0 894.38,-470.6 894.38,-1049.4"
         style="fill:#faab7f;fill-opacity:1;fill-rule:nonzero;stroke:none"
         id="path46" /><path
         d="m 15474.9,9994.5 c 0,-335.2 -30.2,-669.5 -90.3,-995.2 l -170.1,-14.1 c -311,414.4 -737.6,737 -1231.4,919.7 0.7,29.5 1.1,59 1.1,89.3 0,2198.1 -1788.1,3986.2 -3986.23,3986.2 -2197.82,0 -3986.23,-1788.1 -3986.23,-3986.2 0,-1346 671.93,-2591.1 1797.55,-3331.6 0,0 0.35,0 0.35,-0.3 0.35,0 0.7,-0.4 1.05,-0.7 246,-162.4 510.27,-297 785.44,-399.9 447.72,-168.4 919.33,-253.8 1401.84,-253.8 222.83,0 445.93,19 664.93,55.6 114.5,-209.8 256.5,-402.1 420.3,-573.9 -12,-18.6 -19.7,-40.4 -21.8,-63.6 l -68.5,-818.9 C 10338.8,4487.7 9652.16,4488 9003.08,4607.5 L 8934.2,5426 c -5.27,59.4 -46.74,108.9 -104.37,124 -402.38,105.8 -788.96,266 -1148.11,476.6 -51.31,29.8 -116.32,24.2 -161.66,-14.1 L 6892.77,5482.6 C 6339.62,5863.5 5866.95,6335.8 5486.01,6889 l 529.95,627.6 c 38.3,45.7 43.93,110.4 13.7,161.7 -210.5,360.2 -370.75,746.4 -475.83,1148.1 -15.11,57.6 -65.01,99.4 -124.05,104.4 l -818.82,68.8 c -60.1,325.4 -90.32,659.7 -90.32,994.9 0,335.6 30.22,669.5 90.32,994.6 l 818.82,69.2 c 59.39,4.9 108.94,46.7 124.05,104.4 105.08,401.3 264.98,787.5 475.83,1148.4 30.23,51.3 24.6,116 -13.7,161.7 l -529.95,626.9 c 380.59,553.2 852.91,1025.8 1406.76,1407.1 l 627.65,-529.9 c 45.68,-38.7 110.34,-44.3 161.65,-14.1 359.16,210.2 745.38,370.4 1147.76,475.9 57.63,15.1 99.1,65 104.37,124.4 l 68.88,818.1 c 649.79,119.8 1336.82,120.2 1989.82,0.3 l 68.5,-818.4 c 5.3,-59.4 47.1,-109.3 104.7,-124.4 402.4,-105.5 788.6,-265.7 1147.8,-475.9 51.3,-30.2 116.3,-24.6 161.6,14.1 l 627.7,529.9 c 553.8,-381.6 1026.5,-854.3 1406.7,-1407.4 l -529.6,-627.3 c -38.6,-45.4 -44.3,-110 -14,-161.7 210.5,-359.9 370.7,-746.1 475.8,-1147.7 15.1,-57.7 65,-99.5 124.1,-104.4 l 818.4,-69.2 c 60.1,-325.1 90.3,-659 90.3,-994.6"
         style="fill:#1072a7;fill-opacity:1;fill-rule:nonzero;stroke:none"
         id="path48" /><path
         d="m 14160.3,7348.3 c -153.6,-149.4 -223.6,-364.8 -187.4,-575.7 l 148,-862 -774.2,406.9 c -189.4,99.9 -415.7,99.5 -605.1,0 l -774.2,-406.9 147.6,862 c 36.5,210.9 -33.8,426.3 -187,575.7 l -626.2,610.4 865.5,125.8 c 211.9,30.9 395,163.8 489.9,356 l 386.9,784 386.9,-784 c 94.9,-192.2 278,-325.1 489.9,-356 l 865.6,-125.8 -626.2,-610.4"
         style="fill:#f5c640;fill-opacity:1;fill-rule:nonzero;stroke:none"
         id="path50" /></g></g></svg>
